<?xml version="1.0" encoding="utf-8"?>
<!-- Generator: Adobe Illustrator 16.0.4, SVG Export Plug-In . SVG Version: 6.00 Build 0)  -->
<!DOCTYPE svg PUBLIC "-//W3C//DTD SVG 1.1//EN" "http://www.w3.org/Graphics/SVG/1.1/DTD/svg11.dtd">
<svg version="1.1" xmlns="http://www.w3.org/2000/svg" xmlns:xlink="http://www.w3.org/1999/xlink" x="0px" y="0px" width="1276px"
	 height="340px" viewBox="0 0 1276 340" enable-background="new 0 0 1276 340" xml:space="preserve">
<g id="lores" display="none">
	
		<image display="inline" overflow="visible" width="1417" height="154" xlink:href="logo_txt.jpg"  transform="matrix(1 0 0 1 -108 160)">
	</image>
</g>
<g id="edit" display="none">
	
		<text transform="matrix(1 0 0 1 4 115)" display="inline" fill="#569099" font-family="'LithosPro-Black'" font-size="133" letter-spacing="-4">NORTH WEST ONE</text>
</g>
<g id="shape">
	<path fill="#569099" d="M122.902,71.644c0-25.668,18.62-53.198,57.853-53.198c31.653,0,51.469,17.555,51.469,46.814
		c0,20.082-13.433,52.001-57.986,51.868C138.729,117.128,122.902,92.923,122.902,71.644z M199.64,66.19
		c0.133-17.156-7.847-27.131-20.614-27.131c-15.162,0-23.673,14.363-23.673,30.589c0,17.821,9.443,26.865,20.349,26.865
		C190.064,96.514,199.507,86.007,199.64,66.19z"/>
	<path fill="#569099" d="M275.452,74.303c0,5.054,0.399,38.702,0.665,40.697h-29.658c0.532-3.192,0.266-45.352,0.266-48.145V55.95
		c0-3.99-0.266-32.85-0.665-35.377c18.221,0,36.707,0.266,48.677,1.862c19.683,2.527,30.323,10.241,30.323,22.476
		c0,10.906-6.783,19.285-17.156,26.599c3.99,4.522,24.338,25.136,27.796,29.392l-24.338,18.354
		c-3.059-5.054-28.86-42.426-32.451-48.277c5.852-3.458,15.294-10.772,15.294-19.684c0-6.25-4.389-12.235-18.752-12.368V74.303z"/>
	<path fill="#569099" d="M358.976,115c0.266-3.458,0.399-22.343,0.399-36.84V43.315c-6.384,0-25.269,0.665-29.392,0.798V20.839
		c5.985,0.532,37.505,1.064,38.968,1.064h11.57c2.527,0,31.52-0.532,38.037-1.064v23.274c-2.527-0.133-27.131-0.798-29.259-0.798
		v36.973c0,13.699,0.133,32.052,0.399,34.712H358.976z"/>
	<path fill="#569099" d="M427.336,115c0.266-5.852,0.399-36.973,0.399-40.431V60.206c0-2.261-0.399-36.441-0.665-39.633h31.254
		c-0.266,2.394-0.665,28.062-0.665,30.456v5.32l34.579-2.527v-5.586c0-2.261-0.266-24.737-0.532-27.663h30.988
		c-0.133,3.192-0.532,40.431-0.532,43.623v13.299c0,1.729,0.266,34.978,0.532,37.505h-30.988c0.133-4.522,0.532-26.067,0.532-28.594
		V76.298l-34.579,2.527v4.788c0,5.984,0.399,28.328,0.532,31.387H427.336z"/>
	<path fill="#569099" d="M703.972,31.213c-2.395,4.655-36.308,77.936-41.134,92.955h-1.33
		c-7.543-15.153-24.699-39.624-29.753-46.673c-8.379,11.837-24.604,35.643-30.722,44.155h-1.33
		c-5.188-9.975-32.052-76.872-38.436-92.033l28.195-10.374c4.522,15.294,14.63,47.612,16.758,53.464
		c2.128-3.857,13.433-21.545,25.535-41.761h1.33c11.703,18.087,21.812,31.786,26.599,39.367h0.399
		c2.793-7.182,13.964-42.16,16.757-49.74L703.972,31.213z"/>
	<path fill="#569099" d="M770.738,116.33c-4.788,0-52.8-1.33-59.715-1.33c0.398-7.049,0.398-35.51,0.398-38.569V58.61
		c0-2.128-0.266-34.18-0.398-38.037c7.447,0,52.134-1.995,57.055-2.394l0.532,21.944c-4.921,0-25.802,0.665-28.195,0.665v17.555
		c2.66,0,17.954-0.665,23.807-1.197l0.398,21.279c-3.591,0-21.279-0.532-24.205-0.532v15.827c3.458,0,23.54,0.266,29.791-0.266
		L770.738,116.33z"/>
	<path fill="#569099" d="M783.773,94.652c12.901,0.399,26.998-3.192,26.998-9.443c0-2.66-2.261-4.256-13.033-10.374
		c-8.379-4.788-18.087-11.438-18.087-22.609c0-14.896,19.815-31.121,53.464-34.047l3.591,22.21c-16.624,0-25.003,2.793-25.003,8.246
		c0,3.192,4.256,5.187,12.9,9.443c7.049,3.458,18.486,9.442,18.486,21.412c0,14.629-15.295,33.249-55.726,37.904L783.773,94.652z"/>
	<path fill="#569099" d="M871.552,115c0.267-3.458,0.399-22.343,0.399-36.84V43.315c-6.384,0-25.27,0.665-29.393,0.798V20.839
		c5.985,0.532,37.505,1.064,38.968,1.064h11.571c2.526,0,31.52-0.532,38.036-1.064v23.274c-2.526-0.133-27.131-0.798-29.259-0.798
		v36.973c0,13.699,0.133,32.052,0.399,34.712H871.552z"/>
	<path fill="#569099" d="M959.73,71.644c0-25.668,18.62-53.198,57.854-53.198c31.653,0,51.47,17.555,51.47,46.814
		c0,20.082-13.433,52.001-57.986,51.868C975.558,117.128,959.73,92.923,959.73,71.644z M1036.47,66.19
		c0.133-17.156-7.847-27.131-20.614-27.131c-15.162,0-23.674,14.363-23.674,30.589c0,17.821,9.443,26.865,20.349,26.865
		C1026.894,96.514,1036.336,86.007,1036.47,66.19z"/>
	<path fill="#569099" d="M1078.766,123c0.798-17.443,0.963-85.537,2.292-103.225l4.357-0.798
		c18.886,13.832,61.577,46.149,66.232,49.607c0-7.315-0.399-42.958-0.267-54.676l27.131,0.665
		c-0.798,16.374-1.946,93.777-2.345,102.422l-4.57,0.665c-15.96-10.374-63.971-48.411-65.966-50.007
		c0,5.453,0.133,43.889,0.266,56.278L1078.766,123z"/>
	<path fill="#569099" d="M1256.85,116.33c-4.788,0-52.8-1.33-59.715-1.33c0.398-7.049,0.398-35.51,0.398-38.569V58.61
		c0-2.128-0.266-34.18-0.398-38.037c7.447,0,52.134-1.995,57.055-2.394l0.532,21.944c-4.921,0-25.802,0.665-28.195,0.665v17.555
		c2.66,0,17.954-0.665,23.807-1.197l0.398,21.279c-3.591,0-21.279-0.532-24.205-0.532v15.827c3.458,0,23.54,0.266,29.791-0.266
		L1256.85,116.33z"/>
	<path fill="#569099" d="M14.766,123c0.798-17.443,0.963-85.537,2.292-103.225l4.357-0.798
		c18.886,13.832,61.577,46.149,66.232,49.607c0-7.315-0.399-42.958-0.267-54.676l27.131,0.665
		c-0.798,16.374-1.946,93.777-2.345,102.422l-4.57,0.665c-15.96-10.374-63.971-48.411-65.966-50.007
		c0,5.453,0.133,43.889,0.266,56.278L14.766,123z"/>
</g>
<g id="Layer_6">
	<g id="Layer_4">
		<rect x="15" y="139" fill="#D02C27" width="1249" height="30"/>
	</g>
	<g id="Layer_5">
		<g id="Layer_3">
			
				<text transform="matrix(1 0 0 1 6 322)" fill="#569099" font-family="'KommonGrotesk-Black'" font-size="200" letter-spacing="109">DESIGN</text>
		</g>
	</g>
</g>
</svg>
